name C:\Users\r0593348\3dpredictsim\Results\batch_windlass\Pog_s1_tmt_bCst_d05_k800_WL40_ig24.mot
datacolumns 128
datarows 4
range 1.07453686 1.10677297
endheader
time	pelvis_tilt	pelvis_list	pelvis_rotation	pelvis_tx	pelvis_ty	pelvis_tz	hip_flexion_l	hip_adduction_l	hip_rotation_l	hip_flexion_r	hip_adduction_r	hip_rotation_r	knee_angle_l	knee_angle_r	ankle_angle_l	ankle_angle_r	subtalar_angle_l	subtalar_angle_r	tmt_angle_l	tmt_angle_r	mtp_angle_l	mtp_angle_r	lumbar_extension	lumbar_bending	lumbar_rotation	arm_flex_l	arm_add_l	arm_rot_l	arm_flex_r	arm_add_r	arm_rot_r	elbow_flex_l	elbow_flex_r	pro_sup_l	pro_sup_r	glut_med1_l/activation	glut_med2_l/activation	glut_med3_l/activation	glut_min1_l/activation	glut_min2_l/activation	glut_min3_l/activation	semimem_l/activation	semiten_l/activation	bifemlh_l/activation	bifemsh_l/activation	sar_l/activation	add_long_l/activation	add_brev_l/activation	add_mag1_l/activation	add_mag2_l/activation	add_mag3_l/activation	tfl_l/activation	pect_l/activation	grac_l/activation	glut_max1_l/activation	glut_max2_l/activation	glut_max3_l/activation	iliacus_l/activation	psoas_l/activation	quad_fem_l/activation	gem_l/activation	peri_l/activation	rect_fem_l/activation	vas_med_l/activation	vas_int_l/activation	vas_lat_l/activation	med_gas_l/activation	lat_gas_l/activation	soleus_l/activation	tib_post_l/activation	flex_dig_l/activation	flex_hal_l/activation	tib_ant_l/activation	per_brev_l/activation	per_long_l/activation	per_tert_l/activation	ext_dig_l/activation	ext_hal_l/activation	ercspn_l/activation	intobl_l/activation	extobl_l/activation	glut_med1_r/activation	glut_med2_r/activation	glut_med3_r/activation	glut_min1_r/activation	glut_min2_r/activation	glut_min3_r/activation	semimem_r/activation	semiten_r/activation	bifemlh_r/activation	bifemsh_r/activation	sar_r/activation	add_long_r/activation	add_brev_r/activation	add_mag1_r/activation	add_mag2_r/activation	add_mag3_r/activation	tfl_r/activation	pect_r/activation	grac_r/activation	glut_max1_r/activation	glut_max2_r/activation	glut_max3_r/activation	iliacus_r/activation	psoas_r/activation	quad_fem_r/activation	gem_r/activation	peri_r/activation	rect_fem_r/activation	vas_med_r/activation	vas_int_r/activation	vas_lat_r/activation	med_gas_r/activation	lat_gas_r/activation	soleus_r/activation	tib_post_r/activation	flex_dig_r/activation	flex_hal_r/activation	tib_ant_r/activation	per_brev_r/activation	per_long_r/activation	per_tert_r/activation	ext_dig_r/activation	ext_hal_r/activation	ercspn_r/activation	intobl_r/activation	extobl_r/activation	
          1.07453686	         -2.92361744	         -1.41344838	          5.78447708	          1.34317108	          0.86184491	         -0.00125490	        -17.18134689	         -1.51238497	          7.32247318	         31.23920183	          1.40486136	         -3.44751919	         -9.80201583	        -18.12711373	          0.88074081	          2.34148518	         14.58680146	          5.51893176	        -11.99159209	          0.51378228	         29.59712633	         -1.27237699	         -0.77611996	         -0.29850000	         -1.95568760	          6.03386848	        -13.47017134	         16.39766099	        -10.69219547	        -13.58653941	          8.31687126	         34.56750293	         16.89594805	         86.51662706	         86.51662706	          0.33096043	          0.10103645	          0.05000133	          0.31188849	          0.20632706	          0.09786751	          0.05000840	          0.05000071	          0.05000051	          0.06709619	          0.07434085	          0.05856047	          0.05000089	          0.05000056	          0.05000199	          0.05892133	          0.26406617	          0.05000242	          0.05000050	          0.05000201	          0.05000140	          0.05000114	          0.23088726	          0.44687913	          0.05000010	          0.05000049	          0.05000018	          0.14419591	          0.05000538	          0.07866696	          0.13921087	          0.25395279	          0.32849791	          0.20235243	          0.19849607	          0.19189463	          0.23913799	          0.05000003	          0.17183469	          0.22359810	          0.05000027	          0.05000012	          0.05000018	          0.05000000	          0.06264888	          0.05000006	          0.05000024	          0.05000021	          0.05000388	          0.05000021	          0.05000027	          0.05000046	          0.05000017	          0.05895420	          0.05000014	          0.05895436	          0.05896052	          0.10775809	          0.10226611	          0.12144948	          0.07962234	          0.08072617	          0.05895301	          0.05004022	          0.05895439	          0.05000298	          0.05895380	          0.05000017	          0.05975389	          0.06951549	          0.25156914	          0.05000038	          0.05000036	          0.08516421	          0.13461213	          0.14361601	          0.11521307	          0.07783156	          0.06951379	          0.06839348	          0.05000009	          0.05895461	          0.05895495	          0.50744588	          0.29124641	          0.16408164	          0.05000021	          0.57750100	          0.09635802	          0.05000007	          0.10863495	          0.13435443	
          1.08528223	         -2.91328877	         -1.50023221	          6.00658510	          1.35965878	          0.86099042	         -0.00102962	        -16.91666584	         -1.76756426	          7.07087037	         30.61687380	          1.78730480	         -3.23238777	        -11.84482342	        -17.79833978	         -0.19536291	          2.10230864	         15.31553626	          5.06500266	        -12.54992587	          0.61688670	         30.35442036	         -1.16696069	         -0.56857009	         -0.03462748	         -2.02481747	          5.77783342	        -13.50216785	         16.68070295	        -11.74250705	        -13.57701397	          8.13390872	         35.53674522	         16.84927097	         86.51662706	         86.51662706	          0.28069163	          0.08569026	          0.05000003	          0.26451650	          0.17498854	          0.08300267	          0.05000082	          0.05000012	          0.05000009	          0.05690514	          0.06304952	          0.12439234	          0.26334018	          0.06370070	          0.05000310	          0.05000038	          0.22395801	          0.09664790	          0.05000097	          0.05000094	          0.05000058	          0.05000041	          0.19581834	          0.40919283	          0.05000010	          0.05000031	          0.05000010	          0.12229437	          0.13259641	          0.08333957	          0.11806798	          0.21538043	          0.27860305	          0.17161753	          0.16834696	          0.16274830	          0.20281590	          0.12221015	          0.14573519	          0.18963633	          0.05000027	          0.13959717	          0.05000084	          0.05000005	          0.05765190	          0.07034706	          0.05721788	          0.05001072	          0.05000008	          0.05895465	          0.05895456	          0.05017834	          0.05000028	          0.05000009	          0.05895232	          0.05000011	          0.05000610	          0.09664000	          0.21748637	          0.10300324	          0.06752918	          0.09849826	          0.05000021	          0.08196229	          0.05000057	          0.05000015	          0.05000008	          0.15811536	          0.05895512	          0.05895711	          0.28604489	          0.18442624	          0.13535441	          0.07302920	          0.23256093	          0.22957215	          0.19392398	          0.06600989	          0.05895550	          0.05800538	          0.05000011	          0.05000031	          0.05000069	          0.67847656	          0.24700964	          0.13915964	          0.44650220	          0.63944216	          0.30738736	          0.05000022	          0.09213461	          0.11394762	
          1.09602760	         -2.89822675	         -1.59321782	          6.20338388	          1.37634285	          0.85981833	         -0.00081372	        -16.56958937	         -2.00932895	          6.79979723	         29.84403119	          2.15710978	         -2.93991965	        -14.09525843	        -17.92465692	         -1.22433087	          1.99566401	         15.96481757	          4.56266218	        -12.78627511	          0.42909705	         30.32448032	         -0.76705480	         -0.35151855	          0.24402452	         -2.08380588	          5.45335911	        -13.54817082	         16.89570842	        -12.76897782	        -13.57839491	          8.02964339	         36.51137998	         16.76181510	         86.51662706	         86.51662706	          0.23805799	          0.07267500	          0.05000097	          0.22433969	          0.14840996	          0.07039567	          0.05002066	          0.05000320	          0.05895497	          0.05000005	          0.05347316	          0.18830465	          0.35692209	          0.27814015	          0.12709440	          0.13435144	          0.18994180	          0.08196861	          0.05000967	          0.05003705	          0.05895384	          0.06020797	          0.16607593	          0.36283466	          0.05895518	          0.05895639	          0.05895215	          0.10371938	          0.11413159	          0.12934279	          0.10028525	          0.18266674	          0.23628661	          0.14555090	          0.14277714	          0.13802894	          0.17201072	          0.22414283	          0.12360001	          0.16083308	          0.11106645	          0.22611009	          0.13736951	          0.07322783	          0.06781307	          0.06251206	          0.05000004	          0.05000016	          0.15542347	          0.05000019	          0.05000016	          0.05000018	          0.05000012	          0.05000074	          0.05000009	          0.05000011	          0.05000030	          0.08196163	          0.18445294	          0.28463836	          0.24311336	          0.14364514	          0.05000081	          0.06951391	          0.10333011	          0.12116727	          0.11762284	          0.13409969	          0.05000060	          0.05000243	          0.26336755	          0.15641417	          0.11479576	          0.06193699	          0.27612253	          0.27582708	          0.23196123	          0.05598386	          0.05000091	          0.05000000	          0.05000002	          0.05000330	          0.05000045	          0.57542421	          0.21916812	          0.12648973	          0.46235716	          0.56445995	          0.26069901	          0.05000000	          0.07814048	          0.09664035	
          1.10677297	         -2.87966434	         -1.69506490	          6.37064232	          1.39307066	          0.85835849	         -0.00061631	        -16.11503967	         -2.23425838	          6.52866822	         28.88960643	          2.49085560	         -2.60525448	        -16.59217536	        -18.26630470	         -2.14149687	          2.14831521	         16.51402466	          4.01829294	        -12.48842293	         -0.05087956	         29.11192134	         -0.37021052	         -0.13634976	          0.53809211	         -2.13010963	          5.08381266	        -13.60329854	         17.04836406	        -13.73755458	        -13.59599055	          8.03332788	         37.48123233	         16.61341234	         86.51662706	         86.51662706	          0.27101743	          0.06163685	          0.05000014	          0.23862797	          0.12587695	          0.05970428	          0.05001358	          0.05000027	          0.05000056	          0.05000091	          0.06951252	          0.15970351	          0.30270997	          0.23589406	          0.10779043	          0.11394514	          0.28981049	          0.06951880	          0.05000246	          0.05000179	          0.05000123	          0.05106326	          0.15751120	          0.35912857	          0.05000067	          0.05000190	          0.05000031	          0.08796571	          0.09679640	          0.10969720	          0.08505315	          0.15492187	          0.20039755	          0.12344348	          0.12253516	          0.11706426	          0.14588466	          0.22307399	          0.14180164	          0.15614508	          0.12980737	          0.24268676	          0.11650487	          0.10713216	          0.05751308	          0.05301726	          0.27944900	          0.34527379	          0.49867393	          0.37254678	          0.24621966	          0.39833121	          0.07590360	          0.09117943	          0.08378516	          0.06951254	          0.05000191	          0.06951268	          0.15643681	          0.24140532	          0.20618752	          0.12182871	          0.05000027	          0.05895637	          0.08763634	          0.26197985	          0.19270620	          0.11779360	          0.05000762	          0.05000039	          0.22336529	          0.13265709	          0.27934136	          0.05252953	          0.27635545	          0.29577339	          0.24223289	          0.05000006	          0.05000014	          0.05159114	          0.05000124	          0.05000065	          0.05000142	          0.69007888	          0.18587914	          0.10727747	          0.47949850	          0.60065438	          0.39502284	          0.06099703	          0.08196161	          0.08196185	
